<?xml version="1.0" standalone="no"?>
<!DOCTYPE svg PUBLIC "-//W3C//DTD SVG 20010904//EN"
 "http://www.w3.org/TR/2001/REC-SVG-20010904/DTD/svg10.dtd">
<svg version="1.0" xmlns="http://www.w3.org/2000/svg"
 width="250.000000pt" height="250.000000pt" viewBox="0 0 250.000000 250.000000"
 preserveAspectRatio="xMidYMid meet">
<metadata>
Created by potrace 1.11, written by Peter Selinger 2001-2013
</metadata>
<g transform="translate(0.000000,250.000000) scale(0.100000,-0.100000)"
fill="#000000" stroke="none">
<path d="M1038 2292 l-38 -3 0 -50 c0 -34 -4 -49 -12 -48 -7 1 -30 1 -50 0
l-38 -1 0 -50 c0 -35 -4 -50 -12 -49 -7 1 -30 1 -50 0 l-38 -1 0 -100 0 -100
-50 0 -50 0 0 -50 0 -50 -50 0 -50 0 0 -151 0 -151 38 2 c63 3 62 4 62 -50 l0
-51 58 2 c31 1 76 1 100 0 l42 -1 0 -50 0 -49 -52 0 c-29 1 -74 1 -100 0 l-48
-1 0 -51 0 -51 -32 2 c-18 1 -63 2 -100 1 l-68 -1 0 -51 c0 -46 -2 -50 -22
-49 -74 6 -78 4 -78 -51 0 -46 -2 -50 -22 -49 -13 1 -35 2 -50 1 l-28 -1 0
-100 0 -100 -50 0 -50 0 0 -150 0 -150 -50 0 -50 0 0 -201 0 -201 38 2 c62 3
62 3 62 -45 l0 -45 800 0 800 0 0 145 c0 160 -5 149 68 145 l32 -2 0 51 0 51
38 1 c20 1 43 1 50 0 8 -1 12 14 12 49 l0 50 50 0 50 0 0 50 c0 50 0 50 -32
51 -18 1 -41 1 -50 0 -15 -2 -18 6 -18 48 l0 50 -42 3 c-24 2 -69 1 -100 0
l-58 -4 0 -50 0 -50 -32 2 c-68 4 -68 4 -68 -49 l0 -49 -50 0 -50 -1 0 100 c0
109 -4 103 68 99 l32 -2 0 201 0 201 -22 1 c-13 1 -35 0 -50 -1 -27 -1 -28 0
-28 49 l0 51 -50 0 -50 0 0 50 0 50 38 1 c20 1 42 1 49 0 8 -1 13 17 15 50 l3
51 98 0 97 -1 0 50 0 49 50 0 50 0 0 150 0 150 -42 1 c-24 1 -46 1 -50 0 -5 0
-8 22 -8 49 l0 50 -50 0 -50 0 0 100 c0 73 -3 100 -12 101 -7 1 -30 0 -50 -1
l-38 -2 0 51 c0 55 1 54 -62 51 l-38 -2 0 51 c0 34 -4 51 -12 51 -79 3 -422 4
-450 2z"/>
</g>
</svg>
