<?xml version="1.0" encoding="UTF-8" standalone="no"?>
<!-- Created with Inkscape (http://www.inkscape.org/) -->

<svg
   xmlns:dc="http://purl.org/dc/elements/1.1/"
   xmlns:cc="http://creativecommons.org/ns#"
   xmlns:rdf="http://www.w3.org/1999/02/22-rdf-syntax-ns#"
   xmlns:svg="http://www.w3.org/2000/svg"
   xmlns="http://www.w3.org/2000/svg"
   xmlns:sodipodi="http://sodipodi.sourceforge.net/DTD/sodipodi-0.dtd"
   xmlns:inkscape="http://www.inkscape.org/namespaces/inkscape"
   width="11.789822mm"
   height="7.461256mm"
   viewBox="0 0 11.789822 7.461256"
   version="1.1"
   id="svg8"
   sodipodi:docname="md.svg"
   inkscape:version="0.92.3 (2405546, 2018-03-11)">
  <defs
     id="defs2" />
  <sodipodi:namedview
     id="base"
     pagecolor="#ffffff"
     bordercolor="#666666"
     borderopacity="1.0"
     inkscape:pageopacity="0.0"
     inkscape:pageshadow="2"
     inkscape:zoom="1.979899"
     inkscape:cx="-87.550746"
     inkscape:cy="-110.91902"
     inkscape:document-units="mm"
     inkscape:current-layer="layer1"
     showgrid="false"
     inkscape:lockguides="true"
     inkscape:window-width="1920"
     inkscape:window-height="1029"
     inkscape:window-x="0"
     inkscape:window-y="0"
     inkscape:window-maximized="1" />
  <metadata
     id="metadata5">
    <rdf:RDF>
      <cc:Work
         rdf:about="">
        <dc:format>image/svg+xml</dc:format>
        <dc:type
           rdf:resource="http://purl.org/dc/dcmitype/StillImage" />
        <dc:title></dc:title>
      </cc:Work>
    </rdf:RDF>
  </metadata>
  <g
     inkscape:label="Layer 1"
     inkscape:groupmode="layer"
     id="layer1"
     transform="translate(-35.250918,-78.231299)">
    <text
       xml:space="preserve"
       style="font-style:normal;font-variant:normal;font-weight:normal;font-stretch:normal;font-size:10.58333302px;line-height:1.25;font-family:'Intro Rust';-inkscape-font-specification:'Intro Rust';letter-spacing:0px;word-spacing:0px;fill:#000000;fill-opacity:1;stroke:none;stroke-width:0.26458332"
       x="31.655506"
       y="83.58519"
       id="text21"><tspan
         sodipodi:role="line"
         id="tspan19"
         x="31.655506"
         y="92.545166"
         style="font-style:normal;font-variant:normal;font-weight:normal;font-stretch:normal;font-family:'Intro Rust';-inkscape-font-specification:'Intro Rust';stroke-width:0.26458332" /></text>
    <text
       xml:space="preserve"
       style="font-style:normal;font-variant:normal;font-weight:normal;font-stretch:normal;font-size:10.58333302px;line-height:1.25;font-family:'Intro Rust';-inkscape-font-specification:'Intro Rust';letter-spacing:0px;word-spacing:0px;fill:#000000;fill-opacity:1;stroke:none;stroke-width:0.26458332"
       x="33.120163"
       y="81.317329"
       id="text25"><tspan
         sodipodi:role="line"
         id="tspan23"
         x="33.120163"
         y="90.277306"
         style="font-style:normal;font-variant:normal;font-weight:normal;font-stretch:normal;font-family:'Intro Rust';-inkscape-font-specification:'Intro Rust';stroke-width:0.26458332" /></text>
    <g
       aria-label="MD"
       style="font-style:normal;font-variant:normal;font-weight:normal;font-stretch:normal;font-size:10.58333302px;line-height:1.25;font-family:karlson;-inkscape-font-specification:karlson;letter-spacing:0px;word-spacing:0px;fill:#ffffff;fill-opacity:1;stroke:none;stroke-width:0.26458332"
       id="text29"
       transform="translate(0.80180858,0.03340869)">
      <path
         d="m 34.787793,85.648556 -0.211667,-0.137583 -0.116417,-0.22225 0.01058,-2.338917 -0.02117,-0.201083 0.03175,-1.068917 -0.02117,-0.211667 0.01058,-1.693333 -0.02117,-0.1905 0.03175,-0.41275 -0.03175,-0.645583 0.116417,-0.22225 0.232833,-0.105833 0.296333,0.08467 0.243417,0.179917 0.275167,0.28575 0.169333,0.148167 0.275167,0.328083 0.148166,0.127 0.963084,1.068917 0.232833,0.211666 0.1905,0.243417 0.148167,0.148167 0.127,0.179916 0.22225,0.08467 0.1905,-0.127 0.645583,-0.656167 0.137583,-0.179916 0.931334,-0.9525 0.148166,-0.1905 0.127,-0.116417 0.137584,-0.169333 0.4445,-0.465667 0.22225,-0.137583 0.306916,-0.09525 0.22225,0.116416 0.127,0.22225 -0.02117,0.201084 0.01058,0.433916 -0.01058,0.179917 0.02117,0.455083 -0.01058,0.201084 0.01058,1.04775 -0.02117,0.232833 0.02117,3.175 -0.02117,0.211666 0.03175,0.550334 -0.127,0.306916 -0.22225,0.116417 -1.280584,-0.04233 -0.22225,-0.0635 -0.08467,-0.243417 v -0.15875 l -0.02117,-0.47625 0.02117,-0.1905 -0.02117,-0.391583 0.02117,-0.41275 -0.03175,-0.423334 0.02117,-0.582083 -0.08467,-0.15875 -0.137584,0.0635 -0.433916,0.4445 -0.148167,0.105833 -0.296333,0.34925 -0.127,0.127 -0.148167,0.15875 -0.211667,0.15875 -0.232833,-0.01058 -0.22225,-0.15875 -0.28575,-0.275167 -0.137583,-0.169333 -0.433917,-0.433917 -0.127,-0.15875 -0.169333,-0.137583 -0.105834,-0.04233 -0.09525,0.09525 v 0.41275 l 0.02117,0.232833 -0.02117,0.381 0.01058,0.22225 -0.03175,0.328083 0.03175,1.11125 -0.127,0.1905 -0.296334,0.127 -0.338666,-0.02117 -0.232834,0.03175 -0.41275,-0.02117 z"
         style="font-style:normal;font-variant:normal;font-weight:normal;font-stretch:normal;font-family:'Intro Rust';-inkscape-font-specification:'Intro Rust';fill:#ffffff;stroke-width:0.26458332"
         id="path31"
         inkscape:connector-curvature="0" />
      <path
         d="m 42.291355,85.659146 -0.433917,-0.04233 -0.211667,0.03175 -1.291166,-0.02117 -0.211667,0.02117 -0.211667,-0.105834 -0.105833,-0.328083 v -0.53975 l -0.02117,-0.201083 0.01058,-5.916083 0.09525,-0.22225 0.232833,-0.09525 0.211667,0.01058 0.1905,-0.03175 2.413,0.02117 0.624416,0.09525 0.22225,0.05292 0.179917,0.08467 0.211667,0.04233 0.201083,0.116417 0.53975,0.359833 0.560917,0.624417 0.359833,0.560917 0.08467,0.201083 0.137583,0.402167 0.148167,0.836083 0.01058,0.306916 -0.03175,0.338667 v 0.22225 l -0.03175,0.211667 -0.0635,0.179916 -0.04233,0.22225 -0.05292,0.201084 -0.169333,0.41275 -0.127,0.169333 -0.105834,0.211667 -0.518583,0.66675 -0.709083,0.47625 -0.497417,0.211666 -0.433917,0.07408 -0.306916,0.09525 h -0.211667 l -0.328083,0.04233 z m -0.03175,-1.735667 0.3175,-0.01058 0.455083,-0.05292 0.306917,-0.09525 0.359833,-0.232833 0.391583,-0.4445 0.179917,-0.391583 0.105833,-0.740834 -0.169333,-0.931333 -0.09525,-0.1905 -0.105833,-0.179916 -0.15875,-0.1905 -0.15875,-0.148167 -0.15875,-0.116417 -0.1905,-0.09525 -0.41275,-0.116416 -0.306917,-0.03175 -0.4445,0.01058 -0.338667,0.07408 -0.105833,0.243417 -0.02117,0.179917 0.02117,1.460499 -0.04233,0.529167 0.04233,0.518583 -0.01058,0.433917 0.01058,0.179917 0.08467,0.201083 0.243416,0.116417 z"
         style="font-style:normal;font-variant:normal;font-weight:normal;font-stretch:normal;font-family:'Intro Rust';-inkscape-font-specification:'Intro Rust';fill:#ffffff;stroke-width:0.26458332"
         id="path33"
         inkscape:connector-curvature="0" />
    </g>
  </g>
</svg>
